<?xml version="1.0" encoding="UTF-8"?>
<svg xmlns="http://www.w3.org/2000/svg" viewBox="0 0 279.61 103.97">
  <defs>
    <style>
      .cls-1 {
        fill: #43966f;
      }

      .cls-2 {
        fill: #2975a8;
      }

      .cls-3 {
        fill: none;
      }

      .cls-4 {
        fill: #e7bb2d;
      }
    </style>
  </defs>
  <g id="circle">
    <path class="cls-4" d="M139.81,102.11c-26.71,0-48.43-21.73-48.43-48.43S113.1,5.24,139.81,5.24s48.43,21.73,48.43,48.43-21.73,48.43-48.43,48.43ZM139.81,25.24c-15.68,0-28.43,12.75-28.43,28.43s12.75,28.43,28.43,28.43,28.43-12.75,28.43-28.43-12.75-28.43-28.43-28.43Z"/>
  </g>
  <g id="green">
    <g>
      <path class="cls-3" d="M32.27,10.96c-.77.14-2.24,1.29-3.26,1.46.53,1.1.6.65,1.46.47,1.94-.4,2.39-.55,3.65-1.72-.39.03-1.03-.36-1.86-.21Z"/>
      <path class="cls-3" d="M43.39,25.27c-.13-.25-2.34.46-2.16,1.06.13.25,2.34-.46,2.16-1.06Z"/>
      <path class="cls-3" d="M40.14,47.52c7,2.21,13.21,5.55,13.21,5.55,0,0-9.34-6.92-15.18-8.07-4.18-.82-8.83-.65-12.21-.31-.16.53-.31,1.06-.43,1.63,2.77-.44,9.27-.48,14.62,1.2Z"/>
      <path class="cls-1" d="M127.95,6.72s-.09.02-.14.03c-.16.04-.33.09-.49.13-12.08,3.16-22.26,10.84-28.72,21.07-10.12,14.63-23.36,42.36-29.1,47.07-5.49,4.51-11.91,6.81-19.33,6.81-6.85,0-12.58-2.18-17.22-6.52-1.9-1.89-3.99-4.45-5.62-7.66-1.76-3.7-2.66-7.92-2.73-12.66.09-3.02.31-5.55.72-7.73,4.41,1.28,6.93,8.35,16.29,11.1,9.03,2.66,25.36,3.18,25.36,3.18,0,0-4.75-4.1-7.67-9.33s-5.13-10.57-14.92-13.99c-6.19-2.17-12.26-.11-16.65,2.34.92-1.56,2.09-3,3.56-4.47,5.87-5.87,16.64-12.14,21.02-11.45-1.85-1.09-6.33-.3-7.19.02-.22-.26-.4-.32-.53-.31.02-.02.04-.03.07-.06,3.2-3.17,14.02-3.21,18.59-4.91,1.51-.56-.62-.52-.2-1.15l19.44-.92c-3.21-1.38-6.01-2.3-9.5-2.69l3.91-.34c-2.56.32-6.49-1.45-8.72-.78l.55-1.51c-6.35.24-5.16-1.39-7.77-1.7-3.88-.47-8.61,1.27-12.87.81-2.04-.22-5.56,1.12-6.42.52-.78-.54,2.95-2.28,2.95-2.28l-2.99.69c1.6-1.17,7.46-2.58,7.46-2.58,0,0,.17-.82-.53-.79-.56.02-4.06.37-4.55.63-3.06,1.64-5.95,3.54-9.89,3.87-1.26,1.17-1.71,1.33-3.65,1.72-.87.18-.93.63-1.46-.47,1.01-.17,2.49-1.32,3.26-1.46.83-.15,1.46.24,1.86.21.08-.07-.01-.48.27-.72l9.29-3.93s-5.74,1.3-5.62.54c.27-1.68-5.61.81-7.28,1.88l-.39,1.64c-.29,0-1.71-.33-1.87-.28-.18.06-.37.22-.56.32-.95.5-2.4,1.06-3.3,1.61-.18.11-.38,3.31-.56,3.43-.13.09-.26,1.04-.99,1.1l-1.61-1.41c-4.3,3.33-5.84,5.84-6.07,5.41-.52-.96-2.6,2.25-2.74,2.48-3.38,5.52-5.73,11.24-7.04,16.82-1.12,4.37-1.68,9.03-1.68,13.97,0,13.91,4.5,25.45,13.49,34.63,9,9.18,19.98,13.77,32.96,13.77,6.12,0,12.19-1.16,18.22-3.48,4.59-1.76,10.28-5.05,13.12-7.56,4.47-3.95,9.23-10.51,13.85-17.85,7.53-11.96,14.67-25.96,19.48-34.03.13-.21.26-.41.39-.59,5-8.19,14.01-13.67,24.29-13.67,13.82,0,25.36,9.91,27.9,22.99-2.68-21.14-19.17-37.86-39.75-41.52ZM43.39,25.27c.18.6-2.03,1.3-2.16,1.06-.18-.6,2.03-1.3,2.16-1.06ZM38.17,45c5.83,1.15,15.18,8.07,15.18,8.07,0,0-6.2-3.34-13.21-5.55-5.34-1.69-11.85-1.64-14.62-1.2.13-.57.28-1.11.43-1.63,3.38-.33,8.03-.51,12.21.31Z"/>
    </g>
  </g>
  <g id="blue">
    <g>
      <rect class="cls-2" x="255.41" y="0" width="12.22" height="12.49"/>
      <rect class="cls-2" x="269.99" y="16.11" width="6.38" height="6.52"/>
      <path class="cls-2" d="M275.82,51.03c-.01-.35-.03-.69-.05-1.04-.01-.23-.02-.47-.04-.7,0,0,0,0,0,0-.8-12.12-5.24-22.32-13.35-30.59-9-9.18-19.98-13.77-32.96-13.77-6.12,0-12.19,1.16-18.22,3.48-4.59,1.76-10.28,5.05-13.12,7.56-4.53,4-9.37,10.62-14.07,17.98-6.97,10.93-13.6,23.48-18.36,31.54-4.49,9.8-14.39,16.62-25.85,16.62-13.82,0-25.36-9.91-27.9-22.99,0-.04-.02-.08-.03-.12,2.63,21.2,18.94,38.02,39.57,41.68.48-.12.96-.25,1.43-.38.16-.05.32-.09.48-.14.47-.14.94-.28,1.4-.43.11-.04.22-.07.32-.11.96-.32,1.9-.67,2.83-1.04.07-.03.14-.05.21-.08.45-.18.9-.38,1.34-.58.15-.07.3-.13.44-.2,1.49-.68,2.93-1.43,4.33-2.25.01,0,.03-.02.04-.02.47-.28.94-.57,1.4-.86.04-.02.08-.05.12-.08,3.35-2.14,6.41-4.68,9.13-7.55.02-.01.04-.04.06-.05,9.99-8.37,28.34-48.8,35.38-54.58,5.49-4.51,11.91-6.81,19.33-6.81s13.53,2.55,18.36,7.65c4.82,5.1,7.23,11.68,7.23,19.75,0,.1,0,.2-.01.3,0,0,0,0,0,0,0,.81-.03,1.62-.09,2.41-.06.8-.15,1.58-.26,2.35-.02.11-.02.23-.04.34-.26,1.76-.66,3.45-1.18,5.08-1.16,3.62-2.94,6.91-5.38,9.84-1.94,2.33-4.1,4.63-6.46,6.89-.06.06-.1.13-.15.19-6.44,6.04-11.35,7.61-11.35,7.61-2.09,1.29-4.44,1.78-7,2.34l-6.12,1.34c-1.88.41-3.57,1.01-5.35,1.69-.6.23-1.06.63-1.57.95-1.02.63-1.74,1.47-2.36,2.48-.66,1.07-1.23,2.13-.92,3.47,3.42,2.36,2.33-2.15,9.56-3.91,2.57-.63,3.77.16,6.14.04l2.02-.1c.33,1.28-1.67,2.91-.41,4.07.49.45,1.4.4,2.01.11,1.95-.95,3.72-2.01,5.57-3.15.73-.45,4.28-2.63,4.79-2.33.12.07.28.27.39.42.81,1.16.17,2.49-.93,3.17-1.15.71-2.23,1.32-3.47,1.88-.36.16-.74.36-.87.61-.17.32-.09.93.09,1.15.69.84,1.57.85,2.5.7,8.29-1.31,11.05-6.52,13.87-6.72,1.19-.08,2.55.77,3.5,1.33,1.02.6,1.96,1.07,2.9,1.73l4.23,2.94,2.22,1.58c.6.43,1.54.36,2.08-.14.49-.46.66-1.51.18-2.13l-3.66-4.75c-1.53-1.98-1.17-3.5,0-5.1,1.18-1.23,2.3-2.48,3.35-3.73.28-.31.56-.62.84-.95.09-.11.15-.22.22-.33,1.26-1.56,2.43-3.14,3.49-4.72,2.68-4,4.7-8.34,6.07-13.02.01,0,.02.01.04.02,1.4-4.82,2.1-9.99,2.1-15.52,0-.02,0-.04,0-.06,0-.03,0-.05,0-.07,0-.73-.02-1.44-.05-2.16ZM265.37,33.64h-7.93v-8.11h7.93v8.11Z"/>
    </g>
  </g>
</svg>