<?xml version="1.0" encoding="UTF-8"?>
<svg id="_圖層_1" data-name="圖層 1" xmlns="http://www.w3.org/2000/svg" viewBox="0 0 340.16 340.16">
  <defs>
    <style>
      .cls-1 {
        fill: #2975a8;
      }

      .cls-2 {
        fill: #fff;
      }
    </style>
  </defs>
  <rect class="cls-1" x="-2.06" y="-1.22" width="343.47" height="343.47"/>
  <path class="cls-2" d="M170.08,216.71c-26.71,0-48.43-21.73-48.43-48.43s21.73-48.43,48.43-48.43,48.43,21.73,48.43,48.43-21.73,48.43-48.43,48.43ZM170.08,139.84c-15.68,0-28.43,12.75-28.43,28.43s12.75,28.43,28.43,28.43,28.43-12.75,28.43-28.43-12.75-28.43-28.43-28.43Z"/>
  <path class="cls-2" d="M158.23,121.31s-.09.02-.14.03c-.16.04-.33.09-.49.13-12.08,3.16-22.26,10.84-28.72,21.07-10.12,14.63-23.36,42.36-29.1,47.07-5.49,4.51-11.91,6.81-19.33,6.81s-13.53-2.55-18.36-7.65c-4.82-5.1-7.23-11.68-7.23-19.75,0-3.82.54-7.35,1.58-10.61-.35.01-.69.03-1.04.03-7.08,0-13.54-1.97-19.02-5.36-1.4,4.82-2.1,9.99-2.1,15.52,0,13.91,4.5,25.45,13.49,34.63,9,9.18,19.98,13.77,32.96,13.77,6.12,0,12.19-1.16,18.22-3.48,4.59-1.76,10.28-5.05,13.12-7.56,4.47-3.95,9.23-10.51,13.85-17.85,7.53-11.96,14.67-25.96,19.48-34.03.13-.21.26-.41.39-.59,5-8.19,14.01-13.67,24.29-13.67,13.82,0,25.36,9.91,27.9,22.99-2.68-21.14-19.17-37.86-39.75-41.52Z"/>
  <path class="cls-2" d="M68.11,193.86s-13.64-8.08-13.24-23.8c.25-9.85,1.76-14.41,6.72-19.37,5.87-5.87,16.64-12.14,21.02-11.45-1.85-1.09-6.33-.3-7.19.02-.63-.77-1.02.19-.46-.37,3.2-3.17,14.02-3.21,18.59-4.91,1.51-.56-.62-.52-.2-1.15l19.44-.92c-3.21-1.38-6.01-2.3-9.5-2.69l3.91-.34c-2.56.32-6.49-1.45-8.72-.78l.55-1.51c-6.35.24-5.16-1.39-7.77-1.7-3.88-.47-8.61,1.28-12.87.81-2.04-.22-5.56,1.12-6.42.52-.78-.54,2.95-2.28,2.95-2.28l-2.99.69c1.6-1.17,7.46-2.58,7.46-2.58,0,0,.17-.82-.53-.79-.56.02-4.06.37-4.55.63-3.06,1.64-5.95,3.54-9.89,3.87-1.26,1.17-1.71,1.33-3.65,1.72-.87.18-.93.63-1.46-.47,1.01-.17,2.49-1.32,3.26-1.46.83-.15,1.46.24,1.86.21.08-.07-.01-.48.27-.72l9.29-3.93s-5.74,1.3-5.62.54c.27-1.68-5.61.81-7.28,1.88l-.39,1.64c-.29,0-1.71-.33-1.87-.28-.18.06-.37.22-.56.32-.95.5-2.4,1.06-3.3,1.61-.18.11-.38,3.31-.56,3.43-.13.09-.26,1.04-.99,1.1l-1.61-1.41c-4.3,3.33-5.84,5.84-6.07,5.41-.52-.96-2.6,2.25-2.74,2.48-10.88,17.78-11.07,37.52-.33,48.46,13.11,13.34,25.43,7.57,25.43,7.57ZM73.66,139.87c.18.6-2.03,1.3-2.16,1.06-.18-.6,2.03-1.3,2.16-1.06Z"/>
  <path class="cls-2" d="M51.44,159.96s11.39-11.27,23.23-7.13c9.79,3.42,12,8.76,14.92,13.99,2.92,5.23,7.67,9.33,7.67,9.33,0,0-16.34-.52-25.36-3.18-9.65-2.84-12.02-10.28-16.7-11.22-3.73-.75,7.08-2.18,15.21.38,7,2.21,13.21,5.55,13.21,5.55,0,0-9.34-6.92-15.18-8.07-7.7-1.52-17.01.36-17.01.36Z"/>
  <path class="cls-2" d="M292.65,133.29c-9-9.18-19.98-13.77-32.96-13.77-6.12,0-12.19,1.16-18.22,3.48-4.59,1.76-10.28,5.05-13.12,7.56-4.53,4-9.37,10.62-14.07,17.98-6.97,10.93-13.6,23.48-18.36,31.54-4.49,9.8-14.39,16.62-25.85,16.62-13.82,0-25.36-9.91-27.9-22.99,0-.04-.02-.08-.03-.12,2.63,21.2,18.94,38.02,39.57,41.68.48-.12.96-.25,1.43-.38.16-.05.32-.09.48-.14.47-.14.94-.28,1.4-.43.11-.04.22-.07.32-.11.96-.32,1.9-.67,2.83-1.04.07-.03.14-.05.21-.08.45-.18.9-.38,1.34-.58.15-.07.3-.13.44-.2,1.49-.68,2.93-1.43,4.33-2.25.01,0,.03-.02.04-.02.47-.28.94-.57,1.4-.86.04-.02.08-.05.12-.08,3.35-2.14,6.41-4.68,9.13-7.55.02-.01.04-.04.06-.05,9.99-8.37,28.34-48.8,35.38-54.58,5.49-4.51,11.91-6.81,19.33-6.81s13.53,2.55,18.36,7.65c4.82,5.1,7.23,11.68,7.23,19.75,0,3.82-.54,7.35-1.58,10.61.35-.01.69-.03,1.04-.03,7.08,0,13.54,1.97,19.02,5.36,1.4-4.82,2.1-9.99,2.1-15.52,0-13.91-4.5-25.45-13.49-34.63Z"/>
  <rect class="cls-1" x="287.71" y="140.13" width="7.93" height="8.11"/>
  <rect class="cls-2" x="285.68" y="114.6" width="12.22" height="12.49"/>
  <rect class="cls-2" x="300.27" y="130.71" width="6.38" height="6.52"/>
  <path class="cls-2" d="M304.85,162.76c-.37-.35-.66-.74-.88-1.17-2.34-.82-4.94-.97-7.56-.4-3.99.87-7.66,3.69-10.86,6.61,0,.81-.03,1.62-.09,2.41-.06.8-.15,1.58-.26,2.35-.02.11-.02.23-.04.34-.26,1.76-.66,3.45-1.18,5.08-1.16,3.62-2.94,6.91-5.38,9.84-1.94,2.33-4.1,4.63-6.46,6.89-3.28,3.14,10.54,18.51,14.3,15,4.64-4.34,8.47-8.76,11.49-13.27,2.7-4.04,4.74-8.41,6.11-13.13,0,0,0,0,0,0,.7-2.4,1.22-4.89,1.57-7.47,0,0,0-.02,0-.02.08-.6.15-1.2.21-1.81,0-.05.01-.1.02-.16.06-.58.1-1.16.14-1.75,0-.08.01-.16.02-.24.04-.55.06-1.11.08-1.67,0-.12.01-.24.02-.35.02-.68.03-1.36.03-2.05,0-1.32-.05-2.62-.14-3.9-.42-.36-.81-.72-1.16-1.13Z"/>
  <path class="cls-2" d="M276.47,190.9s21.83,5.75,17.75,10.58c-3.39,4.02-7.03,6.09-4.19,9.78l3.66,4.75c.48.62.31,1.67-.18,2.13-.53.5-1.47.57-2.08.14l-2.22-1.58-4.23-2.94c-.94-.66-1.89-1.13-2.9-1.73-.95-.56-2.31-1.42-3.5-1.33-2.83.2-5.59,5.41-13.87,6.72-.93.15-1.81.14-2.5-.7-.18-.22-.26-.83-.09-1.15.13-.25.51-.44.87-.61,1.24-.56,2.32-1.17,3.47-1.88,1.09-.68,1.74-2.01.93-3.17-.11-.15-.27-.35-.39-.42-.51-.29-4.06,1.89-4.79,2.33-1.85,1.14-3.61,2.21-5.57,3.15-.61.3-1.52.34-2.01-.11-1.26-1.16.75-2.79.41-4.07l-2.02.1c-2.36.12-3.56-.67-6.14-.04-7.23,1.76-6.14,6.27-9.56,3.91-.31-1.34.26-2.4.92-3.47.62-1,1.34-1.84,2.36-2.48.52-.32.97-.71,1.57-.95,1.78-.68,3.48-1.28,5.35-1.69l6.12-1.34c2.56-.56,4.91-1.04,7-2.34,0,0,6.64-2.11,14.6-10.92l1.23-.69Z"/>
</svg>