<?xml version="1.0" encoding="UTF-8"?>
<svg id="_圖層_1" data-name="圖層 1" xmlns="http://www.w3.org/2000/svg" viewBox="0 0 279.61 211.83">
  <defs>
    <style>
      .cls-1 {
        fill: #43966f;
      }

      .cls-2 {
        fill: #496a9a;
      }

      .cls-3 {
        fill: #2975a8;
      }

      .cls-4 {
        fill: none;
      }

      .cls-5 {
        fill: #e7bb2d;
      }
    </style>
  </defs>
  <path class="cls-5" d="M139.81,102.11c-26.71,0-48.43-21.73-48.43-48.43S113.1,5.24,139.81,5.24s48.43,21.73,48.43,48.43-21.73,48.43-48.43,48.43ZM139.81,25.24c-15.68,0-28.43,12.75-28.43,28.43s12.75,28.43,28.43,28.43,28.43-12.75,28.43-28.43-12.75-28.43-28.43-28.43Z"/>
  <g>
    <path class="cls-2" d="M29.79,198.38h7.68v1.2h-6.43v4.69h6.03v1.2h-6.03v6.18h-1.25v-13.26Z"/>
    <path class="cls-2" d="M62.7,204.92c0,3.63-1.84,6.91-5.69,6.91-3.54,0-5.57-3.01-5.57-6.82s2.01-6.82,5.7-6.82c3.42,0,5.55,2.83,5.55,6.73ZM52.78,204.95c0,2.97,1.48,5.68,4.3,5.68,3.04,0,4.29-2.68,4.29-5.69s-1.42-5.56-4.27-5.56c-3,0-4.32,2.65-4.32,5.57Z"/>
    <path class="cls-2" d="M78.98,198.38v8.01c0,3.35,1.74,4.23,3.41,4.23,1.97,0,3.39-.92,3.39-4.23v-8.01h1.28v7.94c0,4.22-2.12,5.48-4.71,5.48s-4.66-1.38-4.66-5.33v-8.09h1.29Z"/>
    <path class="cls-2" d="M102.77,211.64v-13.26h1.75c1.85,3.15,6.06,10.19,6.8,11.63h.02c-.11-1.82-.1-3.83-.1-6v-5.63h1.23v13.26h-1.63c-1.74-2.98-6.07-10.42-6.9-11.89h-.02c.09,1.64.08,3.71.08,6.11v5.78h-1.23Z"/>
    <path class="cls-2" d="M128.35,198.38h4.23c3.42,0,5.77,2.54,5.77,6.51s-2.29,6.75-5.8,6.75h-4.2v-13.26ZM129.61,210.45h2.8c3.1,0,4.6-2.36,4.6-5.51,0-2.78-1.36-5.36-4.6-5.36h-2.81v10.88Z"/>
    <path class="cls-2" d="M154.67,207.33l-1.46,4.31h-1.27l4.47-13.26h1.53l4.66,13.26h-1.36l-1.5-4.31h-5.07ZM159.38,206.13c-1.29-3.74-1.96-5.61-2.22-6.55h-.02c-.3,1.06-1.06,3.36-2.1,6.55h4.33Z"/>
    <path class="cls-2" d="M178.04,199.58h-4.07v-1.2h9.43v1.2h-4.08v12.06h-1.28v-12.06Z"/>
    <path class="cls-2" d="M198.83,198.38v13.26h-1.26v-13.26h1.26Z"/>
    <path class="cls-2" d="M225.1,204.92c0,3.63-1.84,6.91-5.69,6.91-3.54,0-5.57-3.01-5.57-6.82s2.01-6.82,5.7-6.82c3.42,0,5.55,2.83,5.55,6.73ZM215.18,204.95c0,2.97,1.48,5.68,4.3,5.68,3.04,0,4.29-2.68,4.29-5.69s-1.42-5.56-4.27-5.56c-3,0-4.32,2.65-4.32,5.57Z"/>
    <path class="cls-2" d="M240.11,211.64v-13.26h1.75c1.85,3.15,6.06,10.19,6.8,11.63h.02c-.11-1.82-.1-3.83-.1-6v-5.63h1.23v13.26h-1.63c-1.74-2.98-6.07-10.42-6.9-11.89h-.02c.09,1.64.08,3.71.08,6.11v5.78h-1.23Z"/>
  </g>
  <g>
    <path class="cls-4" d="M32.27,10.96c-.77.14-2.24,1.29-3.26,1.46.53,1.1.6.65,1.46.47,1.94-.4,2.39-.55,3.65-1.72-.39.03-1.03-.36-1.86-.21Z"/>
    <path class="cls-4" d="M43.39,25.27c-.13-.25-2.34.46-2.16,1.06.13.25,2.34-.46,2.16-1.06Z"/>
    <path class="cls-4" d="M40.14,47.52c7,2.21,13.21,5.55,13.21,5.55,0,0-9.34-6.92-15.18-8.07-4.18-.82-8.83-.65-12.21-.31-.16.53-.31,1.06-.43,1.63,2.77-.44,9.27-.48,14.62,1.2Z"/>
    <path class="cls-1" d="M127.95,6.72s-.09.02-.14.03c-.16.04-.33.09-.49.13-12.08,3.16-22.26,10.84-28.72,21.07-10.12,14.63-23.36,42.36-29.1,47.07-5.49,4.51-11.91,6.81-19.33,6.81-6.85,0-12.58-2.18-17.22-6.52-1.9-1.89-3.99-4.45-5.62-7.66-1.76-3.7-2.66-7.92-2.73-12.66.09-3.02.31-5.55.72-7.73,4.41,1.28,6.93,8.35,16.29,11.1,9.03,2.66,25.36,3.18,25.36,3.18,0,0-4.75-4.1-7.67-9.33s-5.13-10.57-14.92-13.99c-6.19-2.17-12.26-.11-16.65,2.34.92-1.56,2.09-3,3.56-4.47,5.87-5.87,16.64-12.14,21.02-11.45-1.85-1.09-6.33-.3-7.19.02-.22-.26-.4-.32-.53-.31.02-.02.04-.03.07-.06,3.2-3.17,14.02-3.21,18.59-4.91,1.51-.56-.62-.52-.2-1.15l19.44-.92c-3.21-1.38-6.01-2.3-9.5-2.69l3.91-.34c-2.56.32-6.49-1.45-8.72-.78l.55-1.51c-6.35.24-5.16-1.39-7.77-1.7-3.88-.47-8.61,1.27-12.87.81-2.04-.22-5.56,1.12-6.42.52-.78-.54,2.95-2.28,2.95-2.28l-2.99.69c1.6-1.17,7.46-2.58,7.46-2.58,0,0,.17-.82-.53-.79-.56.02-4.06.37-4.55.63-3.06,1.64-5.95,3.54-9.89,3.87-1.26,1.17-1.71,1.33-3.65,1.72-.87.18-.93.63-1.46-.47,1.01-.17,2.49-1.32,3.26-1.46.83-.15,1.46.24,1.86.21.08-.07-.01-.48.27-.72l9.29-3.93s-5.74,1.3-5.62.54c.27-1.68-5.61.81-7.28,1.88l-.39,1.64c-.29,0-1.71-.33-1.87-.28-.18.06-.37.22-.56.32-.95.5-2.4,1.06-3.3,1.61-.18.11-.38,3.31-.56,3.43-.13.09-.26,1.04-.99,1.1l-1.61-1.41c-4.3,3.33-5.84,5.84-6.07,5.41-.52-.96-2.6,2.25-2.74,2.48-3.38,5.52-5.73,11.24-7.04,16.82-1.12,4.37-1.68,9.03-1.68,13.97,0,13.91,4.5,25.45,13.49,34.63,9,9.18,19.98,13.77,32.96,13.77,6.12,0,12.19-1.16,18.22-3.48,4.59-1.76,10.28-5.05,13.12-7.56,4.47-3.95,9.23-10.51,13.85-17.85,7.53-11.96,14.67-25.96,19.48-34.03.13-.21.26-.41.39-.59,5-8.19,14.01-13.67,24.29-13.67,13.82,0,25.36,9.91,27.9,22.99-2.68-21.14-19.17-37.86-39.75-41.52ZM43.39,25.27c.18.6-2.03,1.3-2.16,1.06-.18-.6,2.03-1.3,2.16-1.06ZM38.17,45c5.83,1.15,15.18,8.07,15.18,8.07,0,0-6.2-3.34-13.21-5.55-5.34-1.69-11.85-1.64-14.62-1.2.13-.57.28-1.11.43-1.63,3.38-.33,8.03-.51,12.21.31Z"/>
  </g>
  <g>
    <path class="cls-2" d="M31.6,140.72c.58,2.76,2.42,3.96,5.37,3.96s4.2-1.25,4.2-3.26c0-2.23-1.23-3.2-5.59-4.29-6.94-1.75-8.66-4.47-8.66-8.17,0-4.78,3.33-8.03,9.37-8.03,6.77,0,9.47,3.91,9.84,7.93h-5.56c-.27-1.69-1.13-3.52-4.42-3.52-2.24,0-3.59.99-3.59,2.94s1.08,2.68,5.21,3.71c7.42,1.88,9.05,4.85,9.05,8.71,0,5.01-3.52,8.44-10.27,8.44s-9.89-3.43-10.5-8.43h5.56Z"/>
    <path class="cls-2" d="M54.81,126.9v13.08c0,4.21,2.01,5.46,4.21,5.46,2.53,0,4.11-1.48,4.11-5.46v-13.08h4.42v12.84c0,7.5-4.08,9.42-8.59,9.42s-8.58-2-8.58-9.33v-12.93h4.42Z"/>
    <path class="cls-2" d="M75.42,142.41c.46,2.2,1.94,3.17,4.3,3.17s3.36-1,3.36-2.61c0-1.79-.98-2.56-4.47-3.43-5.55-1.4-6.93-3.57-6.93-6.54,0-3.83,2.66-6.42,7.49-6.42,5.42,0,7.58,3.13,7.87,6.34h-4.45c-.21-1.35-.91-2.82-3.54-2.82-1.79,0-2.87.8-2.87,2.35s.87,2.15,4.16,2.97c5.94,1.5,7.24,3.88,7.24,6.97,0,4.01-2.82,6.76-8.21,6.76s-7.91-2.74-8.4-6.74h4.45Z"/>
    <path class="cls-2" d="M95.57,130.79h-6.2v-3.89h16.8v3.89h-6.18v18.06h-4.42v-18.06Z"/>
    <path class="cls-2" d="M110.95,143.77l-1.59,5.07h-4.34l6.93-21.94h5.54l7.23,21.94h-4.64l-1.68-5.07h-7.46ZM117.46,139.88c-1.45-4.63-2.37-7.59-2.86-9.56h-.03c-.5,2.16-1.52,5.61-2.68,9.56h5.58Z"/>
    <path class="cls-2" d="M127.79,148.84v-21.94h5.47c2.55,4.93,7.26,13.81,8.2,16.21h.06c-.23-2.29-.23-6.1-.23-9.7v-6.5h4v21.94h-5.19c-2.19-4.29-7.41-14.5-8.42-17.03h-.06c.15,1.92.2,6.43.2,10.36v6.67h-4.03Z"/>
    <path class="cls-2" d="M155.03,126.9v21.94h-4.41v-21.94h4.41Z"/>
    <path class="cls-2" d="M160.36,126.9h8.92c4.93,0,6.8,2.76,6.8,5.61,0,2.47-1.22,4.08-2.6,4.76,1.38.56,3.18,2.12,3.18,5,0,3.75-2.74,6.57-7.08,6.57h-9.22v-21.94ZM168.77,135.55c2.1,0,2.96-1.01,2.96-2.55s-1.13-2.44-2.84-2.44h-4.21v4.99h4.08ZM164.69,145.18h3.98c2.38,0,3.47-1.07,3.47-3.06,0-1.77-1.06-2.9-3.49-2.9h-3.96v5.96Z"/>
    <path class="cls-2" d="M184.97,126.9v21.94h-4.41v-21.94h4.41Z"/>
    <path class="cls-2" d="M190.29,126.9h4.41v18.05h10.17l-.5,3.89h-14.08v-21.94Z"/>
    <path class="cls-2" d="M212.35,126.9v21.94h-4.41v-21.94h4.41Z"/>
    <path class="cls-2" d="M222.02,130.79h-6.2v-3.89h16.8v3.89h-6.18v18.06h-4.42v-18.06Z"/>
    <path class="cls-2" d="M241.85,148.84v-7.75c0-.25-.03-.47-.17-.71l-7.04-13.48h4.99c1.58,3.31,3.62,7.71,4.64,10.1.89-2.3,3.12-6.92,4.67-10.1h4.62l-7.13,13.42c-.08.16-.17.25-.17.7v7.83h-4.42Z"/>
  </g>
  <g>
    <path class="cls-2" d="M24.74,169.95c0,7.64-4.26,14.21-12.55,14.21s-12.2-6.26-12.2-14.11,4.63-14.11,12.55-14.11c7.46,0,12.19,5.62,12.19,14.02ZM5.7,169.92c0,5.35,2.19,9.41,6.71,9.41,4.9,0,6.64-4.42,6.64-9.31,0-5.19-1.98-9.27-6.73-9.27s-6.62,3.83-6.62,9.17Z"/>
    <path class="cls-2" d="M28.13,162.21h14.25v3.89h-9.94v5.38h9.31v3.89h-9.31v8.79h-4.31v-21.94Z"/>
    <path class="cls-2" d="M57.96,175.72c.58,2.76,2.42,3.96,5.37,3.96s4.2-1.25,4.2-3.26c0-2.23-1.23-3.2-5.59-4.29-6.94-1.75-8.66-4.47-8.66-8.17,0-4.78,3.33-8.03,9.37-8.03,6.77,0,9.47,3.91,9.84,7.93h-5.56c-.27-1.69-1.13-3.52-4.42-3.52-2.24,0-3.59.99-3.59,2.94s1.08,2.68,5.21,3.71c7.42,1.88,9.05,4.85,9.05,8.71,0,5.01-3.52,8.44-10.27,8.44s-9.89-3.43-10.5-8.43h5.56Z"/>
    <path class="cls-2" d="M80.86,161.9v13.08c0,4.21,2.01,5.46,4.21,5.46,2.53,0,4.11-1.48,4.11-5.46v-13.08h4.42v12.84c0,7.5-4.08,9.42-8.59,9.42s-8.58-2-8.58-9.33v-12.93h4.42Z"/>
    <path class="cls-2" d="M101.46,177.41c.46,2.2,1.94,3.17,4.3,3.17s3.36-1,3.36-2.61c0-1.79-.98-2.56-4.47-3.43-5.55-1.4-6.93-3.57-6.93-6.54,0-3.83,2.66-6.42,7.49-6.42,5.42,0,7.58,3.13,7.87,6.34h-4.45c-.21-1.35-.91-2.82-3.54-2.82-1.79,0-2.87.8-2.87,2.35s.87,2.15,4.16,2.97c5.94,1.5,7.24,3.88,7.24,6.97,0,4.01-2.82,6.76-8.21,6.76s-7.91-2.74-8.4-6.74h4.45Z"/>
    <path class="cls-2" d="M121.62,165.79h-6.2v-3.89h16.8v3.89h-6.18v18.06h-4.42v-18.06Z"/>
    <path class="cls-2" d="M137,178.77l-1.59,5.07h-4.34l6.93-21.94h5.54l7.23,21.94h-4.64l-1.68-5.07h-7.46ZM143.5,174.88c-1.45-4.63-2.37-7.59-2.87-9.56h-.03c-.5,2.16-1.52,5.61-2.68,9.56h5.58Z"/>
    <path class="cls-2" d="M153.84,183.84v-21.94h5.47c2.55,4.93,7.26,13.81,8.2,16.21h.06c-.23-2.29-.23-6.1-.23-9.7v-6.5h4v21.94h-5.19c-2.19-4.29-7.41-14.5-8.42-17.03h-.06c.15,1.92.2,6.43.2,10.36v6.67h-4.03Z"/>
    <path class="cls-2" d="M181.08,161.9v21.94h-4.41v-21.94h4.41Z"/>
    <path class="cls-2" d="M186.41,161.9h8.92c4.93,0,6.8,2.76,6.8,5.61,0,2.47-1.22,4.08-2.6,4.76,1.38.56,3.18,2.12,3.18,5,0,3.75-2.74,6.57-7.08,6.57h-9.22v-21.94ZM194.82,170.55c2.1,0,2.96-1.01,2.96-2.55s-1.13-2.44-2.84-2.44h-4.21v4.99h4.08ZM190.74,180.18h3.98c2.38,0,3.47-1.07,3.47-3.06,0-1.77-1.06-2.9-3.49-2.9h-3.96v5.96Z"/>
    <path class="cls-2" d="M211.01,161.9v21.94h-4.41v-21.94h4.41Z"/>
    <path class="cls-2" d="M216.34,161.9h4.41v18.05h10.17l-.5,3.89h-14.08v-21.94Z"/>
    <path class="cls-2" d="M238.4,161.9v21.94h-4.41v-21.94h4.41Z"/>
    <path class="cls-2" d="M248.07,165.79h-6.2v-3.89h16.8v3.89h-6.18v18.06h-4.42v-18.06Z"/>
    <path class="cls-2" d="M267.9,183.84v-7.75c0-.25-.03-.47-.17-.71l-7.04-13.48h4.99c1.58,3.31,3.62,7.71,4.64,10.1.89-2.3,3.12-6.92,4.67-10.1h4.62l-7.13,13.42c-.08.16-.17.25-.17.7v7.83h-4.42Z"/>
  </g>
  <g>
    <rect class="cls-3" x="255.41" y="0" width="12.22" height="12.49"/>
    <rect class="cls-3" x="269.99" y="16.11" width="6.38" height="6.52"/>
    <path class="cls-3" d="M275.82,51.03c-.01-.35-.03-.69-.05-1.04-.01-.23-.02-.47-.04-.7,0,0,0,0,0,0-.8-12.12-5.24-22.32-13.35-30.59-9-9.18-19.98-13.77-32.96-13.77-6.12,0-12.19,1.16-18.22,3.48-4.59,1.76-10.28,5.05-13.12,7.56-4.53,4-9.37,10.62-14.07,17.98-6.97,10.93-13.6,23.48-18.36,31.54-4.49,9.8-14.39,16.62-25.85,16.62-13.82,0-25.36-9.91-27.9-22.99,0-.04-.02-.08-.03-.12,2.63,21.2,18.94,38.02,39.57,41.68.48-.12.96-.25,1.43-.38.16-.05.32-.09.48-.14.47-.14.94-.28,1.4-.43.11-.04.22-.07.32-.11.96-.32,1.9-.67,2.83-1.04.07-.03.14-.05.21-.08.45-.18.9-.38,1.34-.58.15-.07.3-.13.44-.2,1.49-.68,2.93-1.43,4.33-2.25.01,0,.03-.02.04-.02.47-.28.94-.57,1.4-.86.04-.02.08-.05.12-.08,3.35-2.14,6.41-4.68,9.13-7.55.02-.01.04-.04.06-.05,9.99-8.37,28.34-48.8,35.38-54.58,5.49-4.51,11.91-6.81,19.33-6.81s13.53,2.55,18.36,7.65c4.82,5.1,7.23,11.68,7.23,19.75,0,.1,0,.2-.01.3,0,0,0,0,0,0,0,.81-.03,1.62-.09,2.41-.06.8-.15,1.58-.26,2.35-.02.11-.02.23-.04.34-.26,1.76-.66,3.45-1.18,5.08-1.16,3.62-2.94,6.91-5.38,9.84-1.94,2.33-4.1,4.63-6.46,6.89-.06.06-.1.13-.15.19-6.44,6.04-11.35,7.61-11.35,7.61-2.09,1.29-4.44,1.78-7,2.34l-6.12,1.34c-1.88.41-3.57,1.01-5.35,1.69-.6.23-1.06.63-1.57.95-1.02.63-1.74,1.47-2.36,2.48-.66,1.07-1.23,2.13-.92,3.47,3.42,2.36,2.33-2.15,9.56-3.91,2.57-.63,3.77.16,6.14.04l2.02-.1c.33,1.28-1.67,2.91-.41,4.07.49.45,1.4.4,2.01.11,1.95-.95,3.72-2.01,5.57-3.15.73-.45,4.28-2.63,4.79-2.33.12.07.28.27.39.42.81,1.16.17,2.49-.93,3.17-1.15.71-2.23,1.32-3.47,1.88-.36.16-.74.36-.87.61-.17.32-.09.93.09,1.15.69.84,1.57.85,2.5.7,8.29-1.31,11.05-6.52,13.87-6.72,1.19-.08,2.55.77,3.5,1.33,1.02.6,1.96,1.07,2.9,1.73l4.23,2.94,2.22,1.58c.6.43,1.54.36,2.08-.14.49-.46.66-1.51.18-2.13l-3.66-4.75c-1.53-1.98-1.17-3.5,0-5.1,1.18-1.23,2.3-2.48,3.35-3.73.28-.31.56-.62.84-.95.09-.11.15-.22.22-.33,1.26-1.56,2.43-3.14,3.49-4.72,2.68-4,4.7-8.34,6.07-13.02.01,0,.02.01.04.02,1.4-4.82,2.1-9.99,2.1-15.52,0-.02,0-.04,0-.06,0-.03,0-.05,0-.07,0-.73-.02-1.44-.05-2.16ZM265.37,33.64h-7.93v-8.11h7.93v8.11Z"/>
  </g>
</svg>